PathFileType	4	(X/Y/Z)	Walk1.trc
DataRate	CameraRate	NumFrames	NumMarkers	Units	OrigDataRate	OrigDataStartFrame	OrigNumFrames
200.000000	200.000000	4	59	mm	200.000000	445	485
Frame#	Times		LFHD		RFHD		LBHD		RBHD		C7		T10		CLAV		STRN		RBack		LASI		RASI		LPSI		RPSI		RACR1		RUA1		RElbow		RElbowM		RFA1		RWRR		RWRU		RCAR		LACR1		LUA1		LElbow		LElbowM		LFA1		LWRR		LCAR		RTH1		RTH3		RTH2		RTH4		RLFC		RTB1		RTB3		RTB2		RTB4		RLMAL		RMT1		RMT5		LTH1		LTH3		LTH2		LTH4		LLFC		LTB1		LTB3		LTB2		LTB4		LLMAL		LMMAL		LMT1		LMT5		LToe		RMMAL		LWRU		RToe		LCAL		RCAL
			X1	Y1	Z1	X2	Y2	Z2	X3	Y3	Z3	X4	Y4	Z4	X5	Y5	Z5	X6	Y6	Z6	X7	Y7	Z7	X8	Y8	Z8	X9	Y9	Z9	X10	Y10	Z10	X11	Y11	Z11	X12	Y12	Z12	X13	Y13	Z13	X14	Y14	Z14	X15	Y15	Z15	X16	Y16	Z16	X17	Y17	Z17	X18	Y18	Z18	X19	Y19	Z19	X20	Y20	Z20	X21	Y21	Z21	X22	Y22	Z22	X23	Y23	Z23	X24	Y24	Z24	X25	Y25	Z25	X26	Y26	Z26	X27	Y27	Z27	X28	Y28	Z28	X29	Y29	Z29	X30	Y30	Z30	X31	Y31	Z31	X32	Y32	Z32	X33	Y33	Z33	X34	Y34	Z34	X35	Y35	Z35	X36	Y36	Z36	X37	Y37	Z37	X38	Y38	Z38	X39	Y39	Z39	X40	Y40	Z40	X41	Y41	Z41	X42	Y42	Z42	X43	Y43	Z43	X44	Y44	Z44	X45	Y45	Z45	X46	Y46	Z46	X47	Y47	Z47	X48	Y48	Z48	X49	Y49	Z49	X50	Y50	Z50	X51	Y51	Z51	X52	Y52	Z52	X53	Y53	Z53	X54	Y54	Z54	X55	Y55	Z55	X56	Y56	Z56	X57	Y57	Z57	X58	Y58	Z58	X59	Y59	Z59

445	2.225	1110.5	1601.6	-141.74	1122.6	1607.2	-48.213	962.3	1538.2	-148.54	975.3	1554.4	-7.6704	937.7	1422.6	-72.943	870.44	1153.7	-72.803	1076.9	1345.4	-75.194	1137.6	1243.9	-62.359	883.42	1328.2	32.294	1145.8	970.96	-191.84	1120.3	985.44	96.995	887.91	969.71	-107.39	883.99	969.36	-17.957	1007.7	1384.5	78.669	986.55	1205.2	179.37	935.29	1085.3	206.43	928.36	1052.6	113.12	939.42	940.34	230.23	1011	837.39	191.67	959.64	834.09	242.23	1020.8	785.46	242.42	1012.8	1374.8	-231.31	1026.4	1193.7	-322.32	1014.6	1065.8	-351.1	977.08	1032.9	-283.45	1053.8	933.14	-362.93	1149.7	848.46	-311.76	1175	806.71	-353.43	1072.4	744.22	166.6	1133.3	585.05	135.18	1156.9	687.11	147.63	1102.2	663.42	149.13	1161.3	507.99	117.25	1160.3	345.8	59.857	1053.6	209.6	55.978	1081.4	295.15	109.49	1106.7	276.72	54.763	956.1	133.93	76.285	1049.7	54.964	28.957	1012.9	59.601	95.657	1048.3	761.9	-270.92	1046.2	602.19	-207.67	1103.3	689.83	-218.65	1047.1	683.78	-233.51	1042.3	481.1	-170.67	1077.2	338.54	-89.09	1048.1	168.36	-87.504	1041.3	254.45	-144.17	1063	253.57	-86.597	1002.3	59.041	-109.13	1013.7	67.68	-26.321	1113.9	32.277	-43.983	1084	24.888	-123.03	1182.9	26.935	-69.987	980.5	131.51	-3.9951	1102.4	825.57	-363.41	1102.3	37.877	65.624	937.35	31.052	-74.445	887.29	128.3	32.513
446	2.23	1116.3	1601.6	-141.93	1127.9	1607.1	-48.347	967.57	1538.1	-148.9	980.62	1554.2	-7.9141	942.93	1422.8	-73.241	875.69	1153.9	-73.543	1082.2	1345.2	-75.494	1142.7	1243.7	-62.411	888.55	1328.2	31.759	1150.1	970.8	-193.09	1125.6	985.27	96.214	892.52	969.61	-107.18	888.81	969.11	-17.664	1013	1384.4	78.288	990.66	1205	178.85	939.5	1085.3	205.98	932.19	1052.6	112.49	943.01	940.35	229.76	1014.6	837.36	191.3	962.81	833.92	241.37	1024	785.34	242.02	1018.4	1374.9	-231.61	1032.6	1194.2	-323	1021.8	1066.2	-352	984.24	1033.1	-285.06	1062.6	933.9	-363.76	1159.7	850.55	-312.29	1185.5	809.24	-354.01	1078.5	744.64	166.71	1140.9	586.12	134.41	1163.3	688.28	147.52	1108.7	664.05	148.52	1169.6	509.28	116.17	1171.6	346.82	58.562	1068.7	207.76	54.714	1094.3	293.87	108.37	1120	276.37	53.473	973.3	129.71	75.301	1069.9	53.144	27.864	1032.8	56.095	93.125	1052	761.67	-271.18	1047.6	602.46	-207.56	1106	689.25	-218.92	1050.1	683.55	-233.33	1043.3	481.12	-170.97	1077.5	338.38	-89.16	1048.7	168.31	-87.39	1041.8	254.43	-144.26	1063.2	253.44	-86.682	1002.3	59.06	-109.13	1013.8	67.556	-26.205	1114	32.125	-44.187	1084	25.019	-123.16	1182.8	26.835	-70.104	998.12	127.56	-5.1324	1112.6	826.94	-364.01	1122.4	38.007	64.514	937.53	30.982	-74.305	904.6	121.46	31.152
447	2.235	1121.9	1601.5	-141.93	1133.4	1606.9	-48.385	972.92	1538.1	-149.25	986.01	1554.1	-8.1976	948.39	1422.7	-73.753	880.85	1154	-74.05	1087.3	1345	-75.803	1147.5	1243.3	-62.396	893.74	1328.2	31.076	1154.5	970.57	-194.28	1130.7	985.05	95.494	897.06	969.54	-106.85	893.7	969.06	-17.45	1018	1384.2	77.947	995.3	1204.8	178.36	943.48	1085.2	205.36	936.07	1052.6	111.65	946.38	940.29	228.94	1018.2	837.36	190.92	966.49	833.78	240.63	1027.4	785.17	241.64	1023.9	1374.9	-231.89	1038.9	1194.6	-323.71	1029.1	1066.6	-352.95	991.38	1033.2	-286.37	1071.5	934.69	-364.63	1169.6	852.52	-312.82	1195.8	811.64	-354.46	1084.6	744.9	166.6	1148.4	587.13	133.65	1169.6	689.29	147.41	1115.2	664.55	148.04	1177.6	510.56	114.98	1182.8	347.87	57.147	1083.8	205.84	53.572	1107.1	292.59	107.19	1133.2	275.97	52.135	990.73	125.14	74.019	1089.9	51.363	26.363	1052.6	53.084	91.133	1057.2	761.52	-270.67	1049.1	602.58	-207.58	1108.6	688.72	-219.28	1054.2	683.42	-232.2	1044.5	481.17	-171.37	1078.1	338.25	-89.252	1049.6	168.36	-87.254	1042.3	254.42	-144.4	1063.6	253.39	-86.746	1002.4	59.088	-109.16	1013.2	65.518	-25.29	1114.1	32.105	-43.718	1084.7	24.806	-122.87	1183.1	27.149	-69.258	1017	122.58	-6.0769	1122.5	828.18	-364.37	1142.7	38.273	63.527	936.33	31.683	-74.39	922.75	114.5	30.094
448	2.24	1127.5	1601.4	-142.17	1138.7	1606.7	-48.447	978.53	1537.9	-149.52	991.42	1553.9	-8.4505	953.92	1422.5	-74.192	885.93	1153.9	-74.576	1092.7	1344.8	-76.155	1152.8	1243	-62.554	898.83	1328.1	30.527	1158.7	970.27	-195.49	1136.2	984.77	94.758	901.51	969.51	-106.62	898.55	968.94	-17.131	1023.2	1383.9	77.636	1000	1204.6	177.88	947.42	1085.1	204.72	940.02	1052.6	110.99	949.9	940.16	228.13	1021.9	837.24	190.81	969.83	833.35	239.69	1030.7	785	241.29	1029.4	1374.9	-232.19	1045.1	1194.9	-324.33	1036.6	1066.9	-353.99	998.46	1033.3	-287.58	1080.3	935.35	-365.38	1179.4	854.5	-313.37	1206.2	814.02	-354.99	1090.3	745.01	166.32	1155.7	588.06	132.71	1176.1	690.29	147.13	1121.9	665.02	147.54	1185.5	511.81	113.8	1193.8	348.82	55.724	1099.1	203.83	52.267	1120	291.38	105.98	1146.4	275.54	50.89	1008.2	120.45	72.768	1109.9	49.687	25.011	1072.4	50.448	89.867	1062.9	761.4	-270.02	1050.8	602.7	-207.83	1111.2	688.05	-219.54	1057.7	682.83	-232.64	1045.6	481.17	-171.65	1078.9	338.19	-89.384	1050.3	169.05	-87.449	1042.9	254.48	-144.57	1063.5	253.13	-86.766	1002.4	59.13	-109.15	1013.2	64.792	-25.098	1114	32.207	-43.274	1084.7	24.662	-122.79	1183.1	27.345	-68.655	1037.1	117.25	-6.914	1131.8	829.47	-364.79	1163.1	38.828	62.606	935.81	32.105	-74.615	940.56	107.57	28.529
